<svg width="769" height="751" viewBox="0 0 769 751" fill="none" xmlns="http://www.w3.org/2000/svg">
<path d="M162.738 396.073C162.738 396.073 66.5184 425.101 66.5184 552.373L41.1134 543.057C41.1134 415.785 137.333 386.757 137.333 386.757L162.738 396.073Z" fill="#93ABAE"/>
<mask id="mask0_243_3322" style="mask-type:luminance" maskUnits="userSpaceOnUse" x="41" y="386" width="122" height="167">
<path d="M162.737 396.073C162.737 396.073 66.5182 425.101 66.5182 552.373L41.1133 543.057C41.1133 415.785 137.333 386.757 137.333 386.757L162.737 396.073Z" fill="white"/>
</mask>
<g mask="url(#mask0_243_3322)">
<path d="M101.939 398.819C101.939 398.819 94.3786 428.252 127.434 425.821" stroke="#1D1D1B" stroke-width="4.50043" stroke-linejoin="round"/>
<path d="M79.7063 422.401C79.7063 422.401 76.3985 451.699 107.857 444.903" stroke="#1D1D1B" stroke-width="4.50043" stroke-linejoin="round"/>
<path d="M61.1641 449.021C61.1641 449.021 62.1316 478.161 91.947 467" stroke="#1D1D1B" stroke-width="4.50043" stroke-linejoin="round"/>
<path d="M47.573 479.376C47.573 479.376 52.816 508.382 80.9887 492.855" stroke="#1D1D1B" stroke-width="4.50043" stroke-linejoin="round"/>
<path d="M38.3478 511.69C38.3478 511.69 47.8662 540.56 74.3963 520.668" stroke="#1D1D1B" stroke-width="4.50043" stroke-linejoin="round"/>
</g>
<path d="M162.738 396.073C162.738 396.073 66.5184 425.101 66.5184 552.373L41.1134 543.057C41.1134 415.785 137.333 386.757 137.333 386.757L162.738 396.073Z" stroke="#1D1D1B" stroke-width="4.50043" stroke-miterlimit="10"/>
<path d="M41.1152 538.197C41.1152 538.197 28.919 539.682 32.9244 552.396C32.9244 552.396 25.3862 566.257 15.7103 578.048C6.03436 589.839 -0.0862074 600.933 4.61674 605.411C9.3422 609.889 19.7832 594.52 24.6662 596.928C30.2917 599.695 23.496 620.982 31.7318 620.982C39.9676 620.982 44.5355 601.743 51.0612 602.823C56.9792 603.813 56.2592 626.158 64.27 622.872C72.2808 619.587 66.7902 602.958 72.2807 601.181C79.4589 598.84 88.7973 623.818 97.5056 617.697C106.214 611.576 79.4589 585.159 85.4895 576.203C88.6848 571.455 106.709 579.263 106.709 567.72C106.709 556.176 95.863 558.516 90.665 558.291C85.467 558.066 72.6407 552.216 66.7452 541.257C66.7452 541.257 51.5112 551.901 41.0927 538.242L41.1152 538.197Z" fill="white" stroke="#1D1D1B" stroke-width="4.50043" stroke-linejoin="round"/>
<path d="M32.4504 550.596C36.2758 556.514 45.0516 564.119 63.9309 559.236" stroke="#1D1D1B" stroke-width="4.50043" stroke-linecap="round" stroke-linejoin="round"/>
<path d="M601.236 396.073C601.236 396.073 697.455 425.101 697.455 552.373L722.86 543.057C722.86 415.785 626.641 386.757 626.641 386.757L601.236 396.073Z" stroke="#1D1D1B" stroke-width="2.25022" stroke-linejoin="round"/>
<path d="M601.236 396.073C601.236 396.073 697.455 425.101 697.455 552.373L722.86 543.057C722.86 415.785 626.641 386.757 626.641 386.757L601.236 396.073Z" stroke="#1D1D1B" stroke-width="2.25022" stroke-linejoin="round"/>
<path d="M601.236 396.073C601.236 396.073 697.455 425.101 697.455 552.373L722.86 543.057C722.86 415.785 626.641 386.757 626.641 386.757L601.236 396.073Z" fill="#93ABAE"/>
<mask id="mask1_243_3322" style="mask-type:luminance" maskUnits="userSpaceOnUse" x="601" y="386" width="122" height="167">
<path d="M601.236 396.073C601.236 396.073 697.455 425.101 697.455 552.373L722.86 543.057C722.86 415.785 626.641 386.757 626.641 386.757L601.236 396.073Z" fill="white"/>
</mask>
<g mask="url(#mask1_243_3322)">
<path d="M662.034 398.819C662.034 398.819 669.594 428.252 636.539 425.821" stroke="#1D1D1B" stroke-width="4.50043" stroke-linejoin="round"/>
<path d="M684.287 422.401C684.287 422.401 687.595 451.699 656.137 444.903" stroke="#1D1D1B" stroke-width="4.50043" stroke-linejoin="round"/>
<path d="M702.809 449.021C702.809 449.021 701.841 478.161 672.026 467" stroke="#1D1D1B" stroke-width="4.50043" stroke-linejoin="round"/>
<path d="M716.401 479.376C716.401 479.376 711.159 508.382 682.986 492.855" stroke="#1D1D1B" stroke-width="4.50043" stroke-linejoin="round"/>
<path d="M725.624 511.689C725.624 511.689 716.105 540.56 689.575 520.668" stroke="#1D1D1B" stroke-width="4.50043" stroke-linejoin="round"/>
</g>
<path d="M601.236 396.073C601.236 396.073 697.455 425.101 697.455 552.373L722.86 543.057C722.86 415.785 626.641 386.757 626.641 386.757L601.236 396.073Z" stroke="#1D1D1B" stroke-width="4.50043" stroke-miterlimit="10"/>
<path d="M697.995 543.282C697.995 543.282 688.769 553.656 666.019 567.337C649.93 577.036 667.077 591.955 677.81 584.101L688.544 576.248C688.544 576.248 678.17 613.264 694.574 613.264C703.238 613.264 703.62 604.961 703.62 604.961C703.62 604.961 704.723 617.27 717.031 614.952C717.031 614.952 727.585 612.589 722.837 600.415C722.837 600.415 730.69 611.329 739.151 607.234C748.669 602.621 742.099 592.495 742.099 592.495C742.099 592.495 754.137 600.888 761.968 592.832C769.799 584.776 765.546 566.572 755.015 564.457C745.542 562.567 742.234 568.597 742.234 568.597C742.234 568.597 746.577 551.878 737.891 543.193C729.228 534.529 697.972 543.238 697.972 543.238L697.995 543.282Z" fill="white" stroke="#1D1D1B" stroke-width="4.50043" stroke-linecap="round" stroke-linejoin="round"/>
<path d="M743.139 563.174C743.139 563.174 737.784 583.156 753.49 582.211C753.49 582.211 758.823 581.581 757.428 574.808" fill="white"/>
<path d="M743.139 563.174C743.139 563.174 737.784 583.156 753.49 582.211C753.49 582.211 758.823 581.581 757.428 574.808" stroke="#1D1D1B" stroke-width="4.50043" stroke-linecap="round" stroke-linejoin="round"/>
<path d="M723.872 525.011C737.463 525.011 740.479 550.123 714.376 554.084C693.674 557.234 675.29 539.885 693.809 529.084C693.809 529.084 695.812 541.235 714.039 536.847C714.039 536.847 725.335 533.787 723.872 525.011Z" fill="white" stroke="#1D1D1B" stroke-width="4.50043" stroke-linecap="round" stroke-linejoin="round"/>
<path d="M311.859 521.545L341.72 710.586L377.363 714.569L365.595 514.255L311.859 521.545Z" fill="#93ABAE"/>
<mask id="mask2_243_3322" style="mask-type:luminance" maskUnits="userSpaceOnUse" x="311" y="514" width="67" height="201">
<path d="M311.859 521.545L341.72 710.586L377.363 714.569L365.595 514.255L311.859 521.545Z" fill="white"/>
</mask>
<g mask="url(#mask2_243_3322)">
<path d="M308.913 543.26C308.913 543.26 337.176 574.785 373.404 543.26" stroke="#1D1D1B" stroke-width="4.50043" stroke-linecap="round" stroke-linejoin="round"/>
<path d="M313.075 575.19C313.075 575.19 341.338 606.716 377.566 575.19" stroke="#1D1D1B" stroke-width="4.50043" stroke-linecap="round" stroke-linejoin="round"/>
<path d="M317.239 607.143C317.239 607.143 345.502 638.669 381.73 607.143" stroke="#1D1D1B" stroke-width="4.50043" stroke-linecap="round" stroke-linejoin="round"/>
<path d="M321.401 639.097C321.401 639.097 349.663 670.622 385.892 639.097" stroke="#1D1D1B" stroke-width="4.50043" stroke-linecap="round" stroke-linejoin="round"/>
<path d="M325.588 671.05C325.588 671.05 353.851 702.575 390.079 671.05" stroke="#1D1D1B" stroke-width="4.50043" stroke-linecap="round" stroke-linejoin="round"/>
</g>
<path d="M311.859 521.545L341.72 710.586L377.363 714.569L365.595 514.255L311.859 521.545Z" stroke="#1D1D1B" stroke-width="4.50043" stroke-linecap="round" stroke-linejoin="round"/>
<path d="M452.003 516.505L466.45 707.346L432.674 719.407L398.043 521.77L452.003 516.505Z" fill="#93ABAE"/>
<mask id="mask3_243_3322" style="mask-type:luminance" maskUnits="userSpaceOnUse" x="398" y="516" width="69" height="204">
<path d="M452.003 516.505L466.449 707.346L432.673 719.407L398.042 521.77L452.003 516.505Z" fill="white"/>
</mask>
<g mask="url(#mask3_243_3322)">
<path d="M461.476 535.767C461.476 535.767 441.337 572.985 398.762 550.776" stroke="#1D1D1B" stroke-width="4.50043" stroke-linecap="round" stroke-linejoin="round"/>
<path d="M464.851 567.787C464.851 567.787 444.712 605.006 402.137 582.796" stroke="#1D1D1B" stroke-width="4.50043" stroke-linecap="round" stroke-linejoin="round"/>
<path d="M468.227 599.83C468.227 599.83 448.088 637.049 405.513 614.839" stroke="#1D1D1B" stroke-width="4.50043" stroke-linecap="round" stroke-linejoin="round"/>
<path d="M471.603 631.873C471.603 631.873 451.463 669.092 408.889 646.882" stroke="#1D1D1B" stroke-width="4.50043" stroke-linecap="round" stroke-linejoin="round"/>
<path d="M474.978 663.917C474.978 663.917 454.838 701.135 412.264 678.925" stroke="#1D1D1B" stroke-width="4.50043" stroke-linecap="round" stroke-linejoin="round"/>
</g>
<path d="M452.003 516.505L466.45 707.346L432.674 719.407L398.043 521.77L452.003 516.505Z" stroke="#1D1D1B" stroke-width="4.50043" stroke-linecap="round" stroke-linejoin="round"/>
<path d="M393.07 197.514H352.634V95.8721C352.634 95.8721 358.867 90.089 372.841 90.089C386.815 90.089 393.048 95.8721 393.048 95.8721V197.514H393.07Z" fill="#F9C36E" stroke="#1D1D1B" stroke-width="4.50043" stroke-linecap="round" stroke-linejoin="round"/>
<path d="M393.071 110.678V97.9648C393.071 97.9648 386.23 102.668 372.864 102.668C359.498 102.668 352.657 97.9423 352.657 97.9648C352.657 101.633 352.545 103.748 352.387 104.67C351.735 108.766 351.037 112.839 350.384 116.934C350.137 118.532 349.867 120.152 350.024 121.75C350.182 123.347 350.767 124.99 351.915 125.957C354.12 127.803 357.473 126.497 359.138 124.067C359.453 123.617 359.745 123.1 360.173 122.785C360.87 122.267 361.816 122.357 362.581 122.717C365.213 123.977 366.001 127.713 366.294 130.908C366.586 134.103 366.991 137.794 369.354 139.571C371.356 141.079 373.809 140.876 375.654 139.144C376.307 138.514 376.757 137.659 377.117 136.759C379.232 131.448 378.467 125.102 380.582 119.792C381.01 118.712 381.753 117.564 382.788 117.587C383.575 117.587 384.228 118.307 384.52 119.117C384.813 119.927 384.813 120.827 384.835 121.705C384.835 124.315 384.858 126.97 385.51 129.468C386.32 132.551 388.233 135.453 391.203 136.061C392.689 136.376 394.286 135.926 395.389 134.756C397.459 132.551 396.919 129.153 396.311 126.25C395.569 122.762 394.624 119.679 393.791 116.394C393.319 114.504 393.071 112.569 393.071 110.611V110.678Z" fill="#FFE9C0" stroke="#1D1D1B" stroke-width="4.50043" stroke-linejoin="round"/>
<path d="M375.497 82.5507H371.334V95.1745H375.497V82.5507Z" fill="white" stroke="#1D1D1B" stroke-width="2.25022" stroke-linejoin="round"/>
<path d="M371.558 82.5507C371.558 82.5507 351.081 80.5931 351.081 61.8038C351.081 43.0145 367.395 31.8084 369.218 5.99839C370.118 -6.82784 382.764 24.7877 376.306 38.8065C376.306 38.8065 381.639 34.5986 382.764 24.7877C383.889 14.9768 416.45 82.5507 371.558 82.5507Z" fill="#FFA332" stroke="#1D1D1B" stroke-width="4.50043" stroke-miterlimit="10" stroke-linejoin="round"/>
<path d="M489.134 285.408H454.57V162.096C454.57 162.096 459.903 156.988 471.852 156.988C483.801 156.988 489.134 162.096 489.134 162.096V285.408Z" fill="#F9C36E" stroke="#1D1D1B" stroke-width="4.50043" stroke-linecap="round" stroke-linejoin="round"/>
<path d="M490.213 179.22L489.133 164.144C489.133 164.144 483.282 169.859 471.851 169.859C460.42 169.859 454.569 164.144 454.569 164.144C454.569 168.576 454.479 171.164 454.344 172.289C453.782 177.24 453.174 176.947 452.634 181.898C452.409 183.833 452.207 185.791 452.319 187.748C452.432 189.706 452.949 191.686 453.939 192.856C455.807 195.107 459.227 193.734 460.127 190.561C460.443 189.413 462.198 183.045 463.48 183.045C469.308 183.045 464.11 207.213 471.874 207.213C477.342 207.213 476.666 197.132 478.467 190.696C478.827 189.391 479.457 188.018 480.357 188.018C481.032 188.018 481.594 188.896 481.842 189.864C482.089 190.831 482.089 191.934 482.112 192.991C482.112 196.164 482.112 199.382 482.697 202.42C483.395 206.155 485.285 212.726 490.505 211.871C496.401 210.881 493.543 201.722 493.026 198.189C492.396 193.959 491.585 190.224 490.865 186.218C490.46 183.945 490.258 181.583 490.258 179.198L490.213 179.22Z" fill="#FFE9C0" stroke="#1D1D1B" stroke-width="4.50043" stroke-linecap="round" stroke-linejoin="round"/>
<path d="M473.651 149.495H469.488V162.119H473.651V149.495Z" fill="white" stroke="#1D1D1B" stroke-width="2.25022" stroke-linejoin="round"/>
<path d="M470.209 149.495C470.209 149.495 452.837 147.852 452.837 131.898C452.837 123.572 459.948 112.524 463.053 102.465C465.888 93.2618 462.873 82.6407 466.361 84.5534C479.254 91.5966 466.361 119.319 473.651 120.287C473.651 120.287 479.119 121.862 477.769 100.822C477.229 92.4516 508.305 149.517 470.209 149.517V149.495Z" fill="#FFA332" stroke="#1D1D1B" stroke-width="4.50043" stroke-miterlimit="10" stroke-linejoin="round"/>
<path d="M579.05 394.408H544.486V254.017C544.486 254.017 549.819 248.729 561.768 248.729C573.717 248.729 579.05 254.017 579.05 254.017V394.408Z" fill="#F9C36E" stroke="#1D1D1B" stroke-width="4.50043" stroke-linecap="round" stroke-linejoin="round"/>
<path d="M579.052 271.411V255.997C579.052 255.997 573.201 261.713 561.77 261.713C550.339 261.713 544.488 255.997 544.488 255.997C544.488 260.43 544.331 262.995 544.263 264.143C543.701 275.417 532.112 288.625 543.296 291.618C548.831 293.103 553.062 281.65 553.849 281.605C556.257 281.447 553.287 299.336 560.667 299.336C567.036 299.336 566.563 288.985 568.386 282.55C568.746 281.245 569.376 279.872 570.276 279.872C570.951 279.872 571.513 280.75 571.761 281.717C572.008 282.685 572.008 283.787 572.031 284.845C572.031 288.018 567.643 315.268 580.267 312.275C588.525 310.295 580.402 282.415 579.704 278.41C579.299 276.137 579.097 273.774 579.097 271.389L579.052 271.411Z" fill="#FFE9C0" stroke="#1D1D1B" stroke-width="4.50043" stroke-linejoin="round"/>
<path d="M563.569 241.483H559.406V254.107H563.569V241.483Z" fill="white" stroke="#1D1D1B" stroke-width="2.25022" stroke-linejoin="round"/>
<path d="M560.127 241.483C560.127 241.483 542.755 239.841 542.755 223.887C542.755 207.933 556.594 198.437 558.146 176.542C558.911 165.674 569.037 196.142 565.1 211.038C569.172 198.999 571.58 193.869 575.181 192.226C578.173 190.876 574.55 198.302 577.116 208.99C581.009 225.147 583.326 241.461 560.127 241.461V241.483Z" fill="#FFA332" stroke="#1D1D1B" stroke-width="4.50043" stroke-miterlimit="10" stroke-linejoin="round"/>
<path d="M268.094 281.312H302.657V158C302.657 158 297.324 153.208 285.375 153.208C273.944 153.208 268.094 158 268.094 158V281.312Z" fill="#F9C36E" stroke="#1D1D1B" stroke-width="4.50043" stroke-linecap="round" stroke-linejoin="round"/>
<path d="M268.139 174.944V159.531C268.139 159.531 273.99 165.246 285.421 165.246C296.852 165.246 302.703 159.531 302.703 159.531C302.703 163.963 302.793 166.551 302.928 167.676C303.49 172.627 309.003 186.218 303.355 188.266C295.187 191.236 296.492 175.192 295.187 175.192C289.359 175.192 296.784 210.745 289.021 210.745C283.553 210.745 284.228 200.664 282.428 194.229C282.068 192.924 281.438 191.551 280.538 191.551C279.863 191.551 277.995 217.699 269.737 216.259C268.432 216.033 267.104 216.101 266.159 214.683C264.381 212.006 264.854 207.888 265.371 204.355C266.001 200.124 266.812 196.389 267.532 192.384C267.937 190.111 268.139 177.307 268.139 174.944Z" fill="#FFE9C0" stroke="#1D1D1B" stroke-width="4.50043" stroke-linejoin="round"/>
<path d="M283.575 158H287.738V145.377H283.575V158Z" fill="white" stroke="#1D1D1B" stroke-width="2.25022" stroke-linejoin="round"/>
<path d="M284.296 145.377C284.296 145.377 266.924 143.554 266.924 125.912C266.924 108.271 280.763 97.7621 282.315 73.5498C283.08 61.5111 293.814 91.169 288.323 104.333C288.323 104.333 292.846 100.395 293.791 91.169C294.736 81.9431 322.369 145.354 284.273 145.354L284.296 145.377Z" fill="#FFA332" stroke="#1D1D1B" stroke-width="4.50043" stroke-miterlimit="10" stroke-linejoin="round"/>
<path d="M175.318 394.408H209.882V254.017C209.882 254.017 204.549 249.044 192.6 249.044C180.651 249.044 175.318 254.017 175.318 254.017V394.408Z" fill="#F9C36E" stroke="#1D1D1B" stroke-width="4.50043" stroke-linecap="round" stroke-linejoin="round"/>
<path d="M197.189 277.599C188.301 276.047 196.694 311.848 181.753 311.195C161.478 310.295 175.385 282.122 175.317 268.036V255.975C175.317 255.975 181.168 261.69 192.599 261.69C204.03 261.69 209.88 255.975 209.88 255.975C209.88 260.408 210.105 262.973 210.105 264.121C210.105 278.792 222.054 300.709 208.26 300.709C195.299 300.709 201.847 277.779 197.189 277.599Z" fill="#FFE9C0" stroke="#1D1D1B" stroke-width="4.50043" stroke-linecap="round" stroke-linejoin="round"/>
<path d="M194.488 242.001H190.325V254.625H194.488V242.001Z" fill="white" stroke="#1D1D1B" stroke-width="2.25022" stroke-linejoin="round"/>
<path d="M191.047 242.001C191.047 242.001 173.676 240.358 173.676 224.404C173.676 208.45 187.515 198.954 189.067 177.06C189.832 166.191 199.958 199.382 194.49 211.263C194.49 211.263 199.621 201.317 200.566 192.991C201.511 184.666 229.144 241.979 191.047 241.979V242.001Z" fill="#FFA332" stroke="#1D1D1B" stroke-width="4.50043" stroke-miterlimit="10" stroke-linejoin="round"/>
<path d="M123.202 452.351L221.244 367.428H159.138C139.291 367.428 123.179 383.517 123.179 403.387V452.351H123.202Z" fill="#BB0061" stroke="#1D1D1B" stroke-width="4.50043" stroke-miterlimit="10"/>
<path d="M632.942 452.351L534.9 367.428H597.006C616.853 367.428 632.965 383.517 632.965 403.387V452.351H632.942Z" fill="#BB0061" stroke="#1D1D1B" stroke-width="4.50043" stroke-miterlimit="10"/>
<path d="M339.404 195.804L116.992 459.124C89.6971 491.437 112.672 540.897 154.953 540.897H599.754C642.035 540.897 665.01 491.437 637.715 459.124L415.303 195.804C395.456 172.289 359.228 172.289 339.358 195.804H339.404Z" fill="#FFE9C0"/>
<mask id="mask4_243_3322" style="mask-type:luminance" maskUnits="userSpaceOnUse" x="105" y="178" width="545" height="363">
<path d="M339.404 195.804L116.992 459.124C89.6971 491.437 112.672 540.897 154.953 540.897H599.754C642.035 540.897 665.01 491.437 637.715 459.124L415.303 195.804C395.456 172.289 359.228 172.289 339.358 195.804H339.404Z" fill="white"/>
</mask>
<g mask="url(#mask4_243_3322)">
<path d="M499.013 162.118H252.862V230.48H499.013V162.118Z" fill="#BB0061" stroke="#1D1D1B" stroke-width="4.50043" stroke-miterlimit="10"/>
<path d="M214.248 317.181C209.365 318.418 204.167 310.588 201.107 314.615C198.047 318.643 208.825 326.789 205.787 330.817C202.75 334.845 191.971 326.699 188.933 330.727C185.896 334.755 196.652 342.901 193.614 346.929C190.576 350.957 179.797 342.811 176.76 346.839C173.722 350.866 184.478 359.012 181.418 363.04C178.38 367.068 167.601 358.922 164.564 362.95C161.526 366.978 172.282 375.124 169.221 379.152C166.161 383.179 155.405 375.034 152.367 379.062C149.307 383.09 160.086 391.235 157.025 395.263C153.965 399.291 143.209 391.145 140.149 395.173C137.088 399.201 136.143 399.539 141.049 400.754C160.221 405.502 159.141 414.165 178.897 414.278C198.654 414.39 198.722 400.889 218.479 401.001C238.236 401.114 238.168 414.615 257.925 414.728C277.682 414.84 277.749 401.339 297.506 401.451C317.263 401.564 317.196 415.065 336.952 415.178C356.709 415.29 356.777 401.789 376.534 401.901C396.291 402.014 396.223 415.515 415.98 415.628C435.737 415.74 435.804 402.239 455.561 402.351C475.318 402.464 475.251 415.965 495.008 416.078C514.765 416.19 514.855 402.689 534.611 402.801C554.368 402.914 554.301 416.415 574.058 416.528C593.815 416.64 592.802 408.315 611.974 403.454C617.082 402.149 616.272 401.856 613.324 397.491C610.376 393.125 599.17 400.664 596.222 396.298C593.275 391.933 604.458 384.372 601.51 380.007C598.563 375.641 587.357 383.18 584.409 378.814C581.461 374.449 592.644 366.888 589.697 362.5C586.749 358.112 575.543 365.673 572.595 361.307C569.647 356.919 580.831 349.381 577.883 344.993C574.935 340.605 563.729 348.166 560.781 343.801C557.834 339.435 569.017 331.875 566.069 327.487C563.122 323.099 551.916 330.659 548.968 326.272C546.02 321.884 557.204 314.345 554.256 309.957C551.308 305.57 546.245 312.793 541.115 311.51C527.771 308.202 528.873 298.459 515.125 298.684C501.376 298.909 501.601 312.433 487.852 312.658C474.103 312.883 473.856 299.404 460.107 299.652C446.358 299.899 446.583 313.4 432.834 313.625C419.085 313.85 418.838 300.372 405.089 300.619C391.34 300.867 391.565 314.368 377.816 314.593C364.068 314.818 363.82 301.339 350.071 301.587C336.322 301.834 336.547 315.336 322.799 315.561C309.05 315.786 308.802 302.307 295.031 302.554C281.26 302.802 281.507 316.303 267.758 316.528C254.01 316.753 253.11 302.127 239.428 303.544C225.747 304.962 227.592 313.895 214.248 317.293V317.181Z" fill="#FFA332"/>
<path d="M214.248 317.181C209.365 318.418 204.167 310.588 201.107 314.615C198.047 318.643 208.825 326.789 205.787 330.817C202.75 334.845 191.971 326.699 188.933 330.727C185.896 334.755 196.652 342.901 193.614 346.929C190.576 350.957 179.797 342.811 176.76 346.839C173.722 350.866 184.478 359.012 181.418 363.04C178.38 367.068 167.601 358.922 164.564 362.95C161.526 366.978 172.282 375.124 169.221 379.152C166.161 383.179 155.405 375.034 152.367 379.062C149.307 383.09 160.086 391.235 157.025 395.263C153.965 399.291 143.209 391.145 140.149 395.173C137.088 399.201 136.143 399.539 141.049 400.754C160.221 405.502 159.141 414.165 178.897 414.278C198.654 414.39 198.722 400.889 218.479 401.001C238.236 401.114 238.168 414.615 257.925 414.728C277.682 414.84 277.749 401.339 297.506 401.451C317.263 401.564 317.196 415.065 336.952 415.178C356.709 415.29 356.777 401.789 376.534 401.901C396.291 402.014 396.223 415.515 415.98 415.628C435.737 415.74 435.804 402.239 455.561 402.351C475.318 402.464 475.251 415.965 495.008 416.078C514.765 416.19 514.855 402.689 534.611 402.801C554.368 402.914 554.301 416.415 574.058 416.528C593.815 416.64 592.802 408.315 611.974 403.454C617.082 402.149 616.272 401.856 613.324 397.491C610.376 393.125 599.17 400.664 596.222 396.298C593.275 391.933 604.458 384.372 601.51 380.007C598.563 375.641 587.357 383.18 584.409 378.814C581.461 374.449 592.644 366.888 589.697 362.5C586.749 358.112 575.543 365.673 572.595 361.307C569.647 356.919 580.831 349.381 577.883 344.993C574.935 340.605 563.729 348.166 560.781 343.801C557.834 339.435 569.017 331.875 566.069 327.487C563.122 323.099 551.916 330.659 548.968 326.272C546.02 321.884 557.204 314.345 554.256 309.957C551.308 305.57 546.245 312.793 541.115 311.51C527.771 308.202 528.873 298.459 515.125 298.684C501.376 298.909 501.601 312.433 487.852 312.658C474.103 312.883 473.856 299.404 460.107 299.652C446.358 299.899 446.583 313.4 432.834 313.625C419.085 313.85 418.838 300.372 405.089 300.619C391.34 300.867 391.565 314.368 377.816 314.593C364.068 314.818 363.82 301.339 350.071 301.587C336.322 301.834 336.547 315.336 322.799 315.561C309.05 315.786 308.802 302.307 295.031 302.554C281.26 302.802 281.507 316.303 267.758 316.528C254.01 316.753 253.11 302.127 239.428 303.544C225.747 304.962 227.592 313.895 214.248 317.293V317.181Z" stroke="#1D1D1B" stroke-width="4.50043" stroke-miterlimit="10"/>
<path d="M666.203 445.893H63.9331V580.681H666.203V445.893Z" fill="#F2A5D1" stroke="#1D1D1B" stroke-width="4.50043" stroke-miterlimit="10"/>
<path d="M89.3156 470.33C112.785 467 113.978 483.764 137.695 483.764C161.413 483.764 161.413 470.263 185.13 470.263C208.847 470.263 208.847 483.764 232.564 483.764C256.282 483.764 256.282 470.263 279.999 470.263C303.716 470.263 303.716 483.764 327.433 483.764C351.151 483.764 351.151 470.263 374.868 470.263C398.585 470.263 398.585 483.764 422.303 483.764C446.02 483.764 446.02 470.263 469.737 470.263C493.454 470.263 493.454 483.764 517.172 483.764C540.889 483.764 540.889 470.263 564.606 470.263C588.323 470.263 588.323 483.764 612.041 483.764C635.758 483.764 636.906 467.09 660.398 470.33C663.616 470.78 652.387 479.444 652.004 482.662C651.622 485.879 665.033 487.477 664.651 490.695C664.268 493.913 650.857 492.338 650.474 495.555C650.092 498.773 663.503 500.371 663.121 503.589C662.738 506.806 649.327 505.231 648.944 508.449C648.562 511.667 661.973 513.265 661.59 516.482C661.208 519.7 647.797 518.125 647.414 521.343C647.032 524.561 660.443 526.158 660.06 529.376C659.678 532.594 646.266 531.019 645.884 534.237C645.501 537.454 658.913 539.052 658.53 542.27C658.148 545.488 644.736 543.913 644.354 547.153C643.971 550.393 654.457 560.632 651.239 561.104C629.097 564.255 627.927 547.67 605.583 547.67C583.238 547.67 583.215 561.172 560.871 561.172C538.526 561.172 538.504 547.67 516.159 547.67C493.814 547.67 493.792 561.172 471.447 561.172C449.103 561.172 449.08 547.67 426.735 547.67C404.391 547.67 404.368 561.172 382.024 561.172C359.679 561.172 359.657 547.67 337.289 547.67C314.922 547.67 314.922 561.172 292.555 561.172C270.188 561.172 270.188 547.67 247.821 547.67C225.454 547.67 225.454 561.172 203.087 561.172C180.719 561.172 180.719 547.67 158.352 547.67C135.985 547.67 134.86 564.164 112.695 561.104C109.365 560.654 119.109 549.246 118.141 546.028C117.173 542.81 104.235 546.703 103.267 543.462C102.299 540.222 115.216 536.329 114.248 533.112C113.28 529.894 100.342 533.787 99.3741 530.546C98.4065 527.306 111.323 523.413 110.355 520.195C109.388 516.977 96.4489 520.87 95.4813 517.63C94.5137 514.39 107.43 510.519 106.462 507.279C105.495 504.039 92.556 507.954 91.5884 504.714C90.6208 501.473 103.537 497.581 102.569 494.363C101.602 491.145 88.6631 495.038 87.6955 491.797C86.7279 488.557 99.7341 483.832 98.4065 480.726C95.5937 474.133 85.9628 470.713 89.2932 470.24L89.3156 470.33Z" fill="#BB0061"/>
<path d="M89.3156 470.33C112.785 467 113.978 483.764 137.695 483.764C161.413 483.764 161.413 470.263 185.13 470.263C208.847 470.263 208.847 483.764 232.564 483.764C256.282 483.764 256.282 470.263 279.999 470.263C303.716 470.263 303.716 483.764 327.433 483.764C351.151 483.764 351.151 470.263 374.868 470.263C398.585 470.263 398.585 483.764 422.303 483.764C446.02 483.764 446.02 470.263 469.737 470.263C493.454 470.263 493.454 483.764 517.172 483.764C540.889 483.764 540.889 470.263 564.606 470.263C588.323 470.263 588.323 483.764 612.041 483.764C635.758 483.764 636.906 467.09 660.398 470.33C663.616 470.78 652.387 479.444 652.004 482.662C651.622 485.879 665.033 487.477 664.651 490.695C664.268 493.913 650.857 492.338 650.474 495.555C650.092 498.773 663.503 500.371 663.121 503.589C662.738 506.806 649.327 505.231 648.944 508.449C648.562 511.667 661.973 513.265 661.59 516.482C661.208 519.7 647.797 518.125 647.414 521.343C647.032 524.561 660.443 526.158 660.06 529.376C659.678 532.594 646.266 531.019 645.884 534.237C645.501 537.454 658.913 539.052 658.53 542.27C658.148 545.488 644.736 543.913 644.354 547.153C643.971 550.393 654.457 560.632 651.239 561.104C629.097 564.255 627.927 547.67 605.583 547.67C583.238 547.67 583.215 561.172 560.871 561.172C538.526 561.172 538.504 547.67 516.159 547.67C493.814 547.67 493.792 561.172 471.447 561.172C449.103 561.172 449.08 547.67 426.735 547.67C404.391 547.67 404.368 561.172 382.024 561.172C359.679 561.172 359.657 547.67 337.289 547.67C314.922 547.67 314.922 561.172 292.555 561.172C270.188 561.172 270.188 547.67 247.821 547.67C225.454 547.67 225.454 561.172 203.087 561.172C180.719 561.172 180.719 547.67 158.352 547.67C135.985 547.67 134.86 564.164 112.695 561.104C109.365 560.654 119.109 549.246 118.141 546.028C117.173 542.81 104.235 546.703 103.267 543.462C102.299 540.222 115.216 536.329 114.248 533.112C113.28 529.894 100.342 533.787 99.3741 530.546C98.4065 527.306 111.323 523.413 110.355 520.195C109.388 516.977 96.4489 520.87 95.4813 517.63C94.5137 514.39 107.43 510.519 106.462 507.279C105.495 504.039 92.556 507.954 91.5884 504.714C90.6208 501.473 103.537 497.581 102.569 494.363C101.602 491.145 88.6631 495.038 87.6955 491.797C86.7279 488.557 99.7341 483.832 98.4065 480.726C95.5937 474.133 85.9628 470.713 89.2932 470.24L89.3156 470.33Z" stroke="#1D1D1B" stroke-width="4.50043" stroke-miterlimit="10"/>
<path d="M593.815 328.364H414.922L414.09 328.117C404.864 325.371 395.076 325.034 385.692 327.172L380.449 328.364H147.799V242.001H593.837V328.364H593.815Z" fill="#F2A5D1"/>
<mask id="mask5_243_3322" style="mask-type:luminance" maskUnits="userSpaceOnUse" x="147" y="242" width="447" height="87">
<path d="M593.815 328.364H414.922L414.09 328.117C404.864 325.371 395.076 325.034 385.692 327.172L380.449 328.364H147.799V242.001H593.837V328.364H593.815Z" fill="white"/>
</mask>
<g mask="url(#mask5_243_3322)">
<path d="M402.388 335.475C418.283 335.475 431.169 319.335 431.169 299.426C431.169 279.517 418.283 263.378 402.388 263.378C386.493 263.378 373.608 279.517 373.608 299.426C373.608 319.335 386.493 335.475 402.388 335.475Z" fill="white" stroke="#1D1D1B" stroke-width="4.50043" stroke-linecap="round" stroke-linejoin="round"/>
<mask id="mask6_243_3322" style="mask-type:luminance" maskUnits="userSpaceOnUse" x="373" y="263" width="59" height="73">
<path d="M402.388 335.475C418.283 335.475 431.169 319.335 431.169 299.426C431.169 279.517 418.283 263.378 402.388 263.378C386.493 263.378 373.608 279.517 373.608 299.426C373.608 319.335 386.493 335.475 402.388 335.475Z" fill="white"/>
</mask>
<g mask="url(#mask6_243_3322)">
<path d="M411.388 263.288C405.02 263.288 399.215 266.821 394.827 272.604C394.197 273.436 394.264 274.607 394.939 275.394L405.808 288.063C406.393 288.738 405.673 289.75 404.84 289.413L391.609 284.057C390.349 283.54 388.954 284.26 388.594 285.565C387.379 289.796 386.704 294.431 386.704 299.314C386.704 319.228 397.752 335.362 411.388 335.362C425.025 335.362 436.073 319.228 436.073 299.314C436.073 279.399 425.025 263.265 411.388 263.265V263.288Z" fill="#1D1D1B"/>
</g>
<path d="M352.344 335.475C368.239 335.475 381.125 319.336 381.125 299.426C381.125 279.517 368.239 263.378 352.344 263.378C336.45 263.378 323.564 279.517 323.564 299.426C323.564 319.336 336.45 335.475 352.344 335.475Z" fill="white" stroke="#1D1D1B" stroke-width="4.50043" stroke-linecap="round" stroke-linejoin="round"/>
<mask id="mask7_243_3322" style="mask-type:luminance" maskUnits="userSpaceOnUse" x="323" y="263" width="59" height="73">
<path d="M352.344 335.475C368.239 335.475 381.125 319.336 381.125 299.426C381.125 279.517 368.239 263.378 352.344 263.378C336.45 263.378 323.564 279.517 323.564 299.426C323.564 319.336 336.45 335.475 352.344 335.475Z" fill="white"/>
</mask>
<g mask="url(#mask7_243_3322)">
<path d="M361.345 263.288C354.977 263.288 349.171 266.821 344.783 272.604C344.153 273.436 344.221 274.607 344.896 275.394L355.764 288.063C356.349 288.738 355.629 289.75 354.797 289.413L341.565 284.058C340.305 283.54 338.91 284.26 338.55 285.565C337.335 289.796 336.66 294.431 336.66 299.314C336.66 319.228 347.708 335.362 361.345 335.362C374.981 335.362 386.03 319.228 386.03 299.314C386.03 279.4 374.981 263.265 361.345 263.265V263.288Z" fill="#1D1D1B"/>
</g>
</g>
<path d="M593.815 328.364H414.922L414.09 328.117C404.864 325.371 395.076 325.034 385.692 327.172L380.449 328.364H147.799V242.001H593.837V328.364H593.815Z" stroke="#1D1D1B" stroke-width="4.50043" stroke-miterlimit="10"/>
<path d="M351.398 254.602C364.186 254.602 374.553 250.995 374.553 246.546C374.553 242.097 364.186 238.491 351.398 238.491C338.61 238.491 328.243 242.097 328.243 246.546C328.243 250.995 338.61 254.602 351.398 254.602Z" fill="#FFA332" stroke="#1D1D1B" stroke-width="4.50043" stroke-miterlimit="10"/>
<path d="M405.405 254.602C418.193 254.602 428.559 250.995 428.559 246.546C428.559 242.097 418.193 238.491 405.405 238.491C392.617 238.491 382.25 242.097 382.25 246.546C382.25 250.995 392.617 254.602 405.405 254.602Z" fill="#FFA332" stroke="#1D1D1B" stroke-width="4.50043" stroke-miterlimit="10"/>
<path d="M313.031 211.623C326.15 211.623 326.15 220.624 339.246 220.624C352.343 220.624 352.365 211.623 365.484 211.623C378.603 211.623 378.603 220.624 391.699 220.624C404.795 220.624 404.818 211.623 417.937 211.623C431.055 211.623 431.055 220.624 444.174 220.624" stroke="#F2A5D1" stroke-width="4.50043" stroke-miterlimit="10"/>
<path d="M313.031 193.014C326.15 193.014 326.15 202.015 339.246 202.015C352.343 202.015 352.365 193.014 365.484 193.014C378.603 193.014 378.603 202.015 391.699 202.015C404.795 202.015 404.818 193.014 417.937 193.014C431.055 193.014 431.055 202.015 444.174 202.015" stroke="#F2A5D1" stroke-width="4.50043" stroke-miterlimit="10"/>
</g>
<path d="M339.404 195.804L116.992 459.124C89.6971 491.437 112.672 540.897 154.953 540.897H599.754C642.035 540.897 665.01 491.437 637.715 459.124L415.303 195.804C395.456 172.289 359.228 172.289 339.358 195.804H339.404Z" stroke="#1D1D1B" stroke-width="4.50043" stroke-miterlimit="10"/>
<path d="M442.079 362.343C431.165 378.522 412.669 389.143 391.674 389.143C370.68 389.143 352.925 378.927 341.944 363.31" stroke="#1D1D1B" stroke-width="4.50043" stroke-linecap="round" stroke-linejoin="round"/>
<path d="M434.563 347.334C434.563 347.334 436.454 367.608 461.521 365.65" stroke="#1D1D1B" stroke-width="4.50043" stroke-linecap="round" stroke-linejoin="round"/>
<path d="M350.991 347.334C350.991 347.334 349.101 367.608 324.033 365.65" stroke="#1D1D1B" stroke-width="4.50043" stroke-linecap="round" stroke-linejoin="round"/>
<path d="M380.198 348.031C384.046 352.352 391.382 355.254 399.82 355.254C412.219 355.254 422.277 348.954 422.277 341.191C422.277 333.427 417.102 325.732 397.48 325.732C383.731 325.732 374.73 330.682 368.587 339.345" stroke="#1D1D1B" stroke-width="4.50043" stroke-linecap="round" stroke-linejoin="round"/>
<path d="M467.823 342.923L475.316 350.416" stroke="#056CDD" stroke-width="6.75065" stroke-miterlimit="10" stroke-linecap="round"/>
<path d="M328.466 380.749L319.623 386.6" stroke="#0EA031" stroke-width="6.75065" stroke-miterlimit="10" stroke-linecap="round"/>
<path d="M522.3 350.416L513.456 356.267" stroke="#0EA031" stroke-width="6.75065" stroke-miterlimit="10" stroke-linecap="round"/>
<path d="M253.467 347.446L242.868 347.221" stroke="#9A53C9" stroke-width="6.75065" stroke-miterlimit="10" stroke-linecap="round"/>
<path d="M510.847 384.597L500.248 384.395" stroke="#BB0061" stroke-width="6.75065" stroke-miterlimit="10" stroke-linecap="round"/>
<path d="M266.835 376.159L275.409 382.37" stroke="#056CDD" stroke-width="6.75065" stroke-miterlimit="10" stroke-linecap="round"/>
<path d="M299.484 342.496L295.118 352.149" stroke="#FFE9C0" stroke-width="6.75065" stroke-miterlimit="10" stroke-linecap="round"/>
<path d="M548.852 378.837L544.486 388.49" stroke="#9A53C9" stroke-width="6.75065" stroke-miterlimit="10" stroke-linecap="round"/>
<path d="M215.755 377.351L219.085 387.41" stroke="#BB0061" stroke-width="6.75065" stroke-miterlimit="10" stroke-linecap="round"/>
<path d="M462.174 382.37L465.504 392.451" stroke="#FFE9C0" stroke-width="6.75065" stroke-miterlimit="10" stroke-linecap="round"/>
<path d="M369.624 716.054C373.156 729.825 364.471 743.822 350.519 746.567C346.109 747.444 341.158 747.984 335.713 747.984H207.293C201.06 747.984 196.02 742.944 196.02 736.711C196.02 704.6 221.694 678.565 271.469 678.565C321.244 678.565 367.328 707.03 367.328 707.03L369.646 716.054H369.624Z" fill="white"/>
<mask id="mask8_243_3322" style="mask-type:luminance" maskUnits="userSpaceOnUse" x="196" y="678" width="175" height="70">
<path d="M369.624 716.054C373.156 729.825 364.471 743.822 350.519 746.567C346.109 747.444 341.158 747.984 335.713 747.984H207.293C201.06 747.984 196.02 742.944 196.02 736.711C196.02 704.6 221.694 678.565 271.469 678.565C321.244 678.565 367.328 707.03 367.328 707.03L369.646 716.054H369.624Z" fill="white"/>
</mask>
<g mask="url(#mask8_243_3322)">
<path d="M374.799 734.033H182.585V773.007H374.799V734.033Z" fill="#93ABAE" stroke="#1D1D1B" stroke-width="4.50043" stroke-miterlimit="10"/>
<path d="M234.409 674.943C234.409 674.943 289.224 698.93 286.231 755.455C283.238 812.003 140.597 811.126 140.597 811.126L146.583 689.276L234.386 674.92L234.409 674.943Z" fill="#93ABAE" stroke="#1D1E1B" stroke-width="4.50043" stroke-miterlimit="10"/>
</g>
<path d="M369.624 716.054C373.156 729.825 364.471 743.822 350.519 746.567C346.109 747.444 341.158 747.984 335.713 747.984H207.293C201.06 747.984 196.02 742.944 196.02 736.711C196.02 704.6 221.694 678.565 271.469 678.565C321.244 678.565 367.328 707.03 367.328 707.03L369.646 716.054H369.624Z" stroke="#1D1D1B" stroke-width="4.50043" stroke-miterlimit="10"/>
<path d="M439.789 710.489C436.257 724.26 444.942 738.256 458.894 741.002C463.304 741.879 468.255 742.419 473.7 742.419H602.12C608.353 742.419 613.394 737.379 613.394 731.146C613.394 699.035 587.719 673 537.944 673C488.124 673 442.085 701.465 442.085 701.465L439.767 710.489H439.789Z" fill="white"/>
<mask id="mask9_243_3322" style="mask-type:luminance" maskUnits="userSpaceOnUse" x="439" y="673" width="175" height="70">
<path d="M439.789 710.489C436.256 724.26 444.941 738.256 458.893 741.002C463.303 741.879 468.254 742.419 473.699 742.419H602.119C608.352 742.419 613.393 737.379 613.393 731.146C613.393 699.035 587.718 673 537.943 673C488.123 673 442.084 701.465 442.084 701.465L439.766 710.489H439.789Z" fill="white"/>
</mask>
<g mask="url(#mask9_243_3322)">
<path d="M434.612 767.464H626.825V728.49H434.612V767.464Z" fill="#93ABAE" stroke="#1D1D1B" stroke-width="4.50043" stroke-miterlimit="10"/>
<path d="M557.743 669.377C557.743 669.377 502.927 693.365 505.92 749.89C508.913 806.415 651.554 805.56 651.554 805.56L645.568 683.711L557.765 669.355L557.743 669.377Z" fill="#93ABAE" stroke="#1D1E1B" stroke-width="4.50043" stroke-miterlimit="10"/>
</g>
<path d="M439.789 710.489C436.257 724.26 444.942 738.256 458.894 741.002C463.304 741.879 468.255 742.419 473.7 742.419H602.12C608.353 742.419 613.394 737.379 613.394 731.146C613.394 699.035 587.719 673 537.944 673C488.124 673 442.085 701.465 442.085 701.465L439.767 710.489H439.789Z" stroke="#1D1D1B" stroke-width="4.50043" stroke-miterlimit="10"/>
<path d="M376.239 731.243C385.175 731.243 392.418 721.853 392.418 710.271C392.418 698.688 385.175 689.299 376.239 689.299C367.304 689.299 360.06 698.688 360.06 710.271C360.06 721.853 367.304 731.243 376.239 731.243Z" fill="#93ABAE" stroke="#1D1D1B" stroke-width="4.50043" stroke-linecap="round" stroke-linejoin="round"/>
<path d="M385.081 721.139C390.761 721.139 395.365 715.175 395.365 707.818C395.365 700.461 390.761 694.497 385.081 694.497C379.402 694.497 374.798 700.461 374.798 707.818C374.798 715.175 379.402 721.139 385.081 721.139Z" fill="#93ABAE" stroke="#1D1D1B" stroke-width="4.50043" stroke-linecap="round" stroke-linejoin="round"/>
<path d="M443.116 731.243C452.051 731.243 459.295 721.853 459.295 710.271C459.295 698.688 452.051 689.299 443.116 689.299C434.18 689.299 426.937 698.688 426.937 710.271C426.937 721.853 434.18 731.243 443.116 731.243Z" fill="#93ABAE" stroke="#1D1D1B" stroke-width="4.50043" stroke-linecap="round" stroke-linejoin="round"/>
<path d="M438.502 723.592C444.181 723.592 448.786 717.628 448.786 710.271C448.786 702.914 444.181 696.95 438.502 696.95C432.823 696.95 428.219 702.914 428.219 710.271C428.219 717.628 432.823 723.592 438.502 723.592Z" fill="#93ABAE" stroke="#1D1D1B" stroke-width="4.50043" stroke-linecap="round" stroke-linejoin="round"/>
</svg>
