<svg width="169" height="204" viewBox="0 0 169 204" fill="none" xmlns="http://www.w3.org/2000/svg">
<g filter="url(#filter0_d_25_1692)">
<path d="M82.557 141.551C82.557 141.551 62.0801 139.593 62.0801 120.804C62.0801 102.014 78.3941 90.8084 80.2168 64.9984C81.1169 52.1722 93.7632 83.7877 87.305 97.8065C87.305 97.8065 92.638 93.5986 93.7632 83.7877C94.8883 73.9768 127.449 141.551 82.557 141.551Z" fill="#FFA332"/>
<path d="M82.557 141.551C82.557 141.551 62.0801 139.593 62.0801 120.804C62.0801 102.014 78.3941 90.8084 80.2168 64.9984C81.1169 52.1722 93.7632 83.7877 87.305 97.8065C87.305 97.8065 92.638 93.5986 93.7632 83.7877C94.8883 73.9768 127.449 141.551 82.557 141.551Z" stroke="#1D1D1B" stroke-width="4" stroke-miterlimit="10"/>
</g>
<defs>
<filter id="filter0_d_25_1692" x="0.0800781" y="0.000732422" width="168.142" height="203.55" filterUnits="userSpaceOnUse" color-interpolation-filters="sRGB">
<feFlood flood-opacity="0" result="BackgroundImageFix"/>
<feColorMatrix in="SourceAlpha" type="matrix" values="0 0 0 0 0 0 0 0 0 0 0 0 0 0 0 0 0 0 127 0" result="hardAlpha"/>
<feOffset/>
<feGaussianBlur stdDeviation="30"/>
<feComposite in2="hardAlpha" operator="out"/>
<feColorMatrix type="matrix" values="0 0 0 0 1 0 0 0 0 0.639216 0 0 0 0 0.196078 0 0 0 1 0"/>
<feBlend mode="normal" in2="BackgroundImageFix" result="effect1_dropShadow_25_1692"/>
<feBlend mode="normal" in="SourceGraphic" in2="effect1_dropShadow_25_1692" result="shape"/>
</filter>
</defs>
</svg>
