<svg width="169" height="36" viewBox="0 0 169 36" fill="none" xmlns="http://www.w3.org/2000/svg">
<path d="M20.9387 36.0002C16.9543 36.0002 13.645 35.6908 11.008 35.0719C8.37104 34.453 6.28334 33.4447 4.74348 32.047C3.20362 30.6492 2.11093 28.7999 1.46686 26.4975C0.822782 24.1966 0.5 21.3627 0.5 17.9987C0.5 14.6347 0.822782 11.8008 1.46686 9.49989C2.11093 7.19899 3.20362 5.34819 4.74348 3.95048C6.28334 2.55276 8.37104 1.54445 11.008 0.925547C13.645 0.306643 16.9543 -0.00280762 20.9387 -0.00280762C24.4033 -0.00280762 28.2618 0.457667 32.5127 1.37862C33.7017 1.63033 34.2954 2.35732 34.2954 3.56255C34.2954 8.71811 33.3745 11.2959 31.5341 11.2959C29.8935 11.2959 28.5121 11.1626 27.3912 10.8946C25.8677 10.5274 24.4537 10.3424 23.1477 10.3424C21.5072 10.3424 20.2605 10.7777 19.4062 11.6483C18.3016 12.8032 17.7494 14.9205 17.7494 18.0002C17.7494 21.0799 18.3016 23.1972 19.4062 24.3521C20.2605 25.2227 21.5072 25.658 23.1477 25.658C24.4537 25.658 25.8677 25.4744 27.3912 25.1057C28.5121 24.8378 29.8935 24.7045 31.5341 24.7045C33.376 24.7045 34.2954 27.2823 34.2954 32.4378C34.2954 33.6431 33.7017 34.3715 32.5127 34.6218C28.2618 35.5427 24.4033 36.0032 20.9387 36.0032V36.0002Z" fill="#A0005F"/>
<path d="M56.2907 36C49.009 36 44.8588 35.966 43.8371 35.8994C42.8155 35.8327 41.8871 35.732 41.0506 35.5988C40.214 35.4655 39.5448 35.1724 39.0414 34.7193C38.1041 33.865 37.6348 28.2919 37.6348 17.997C37.6348 8.94148 37.9946 3.5431 38.7142 1.80187C39.2161 0.596639 41.7272 -0.00598145 46.2461 -0.00598145H56.2892C62.4664 -0.00598145 65.8097 0.278303 66.3205 0.848346C66.8313 1.41691 67.086 2.85756 67.086 5.16735C67.086 7.47713 66.8313 8.91779 66.3205 9.48635C65.8097 10.0549 62.4664 10.3407 56.2892 10.3407H54.7331L54.8086 12.8267C60.9858 12.8267 64.329 13.1109 64.8399 13.681C65.3507 14.2495 65.6054 15.6902 65.6054 18C65.6054 20.3098 65.3507 21.7504 64.8399 22.319C64.329 22.8876 60.9858 23.1733 54.8086 23.1733L54.7331 25.6593H56.2892C62.4664 25.6593 65.8097 25.9436 66.3205 26.5136C66.8313 27.0822 67.086 28.5228 67.086 30.8326C67.086 33.1424 66.8313 34.5831 66.3205 35.1516C65.8097 35.7202 62.4664 36.006 56.2892 36.006L56.2907 36Z" fill="#A0005F"/>
<path d="M87.9273 36C81.6509 36 77.9967 35.966 76.9676 35.8994C75.9386 35.8327 75.0043 35.732 74.1677 35.5988C73.3312 35.4655 72.6694 35.1724 72.1837 34.7193C71.2302 33.865 70.752 28.2919 70.752 17.997C70.752 7.70219 71.2243 2.12909 72.1704 1.27477C73.1165 0.420444 75.5226 -0.00598145 79.3885 -0.00598145C83.2544 -0.00598145 85.6368 0.420444 86.5814 1.27477C87.5275 2.12909 87.9999 7.70219 87.9999 17.997C87.9999 20.6089 87.9495 23.1615 87.8488 25.6549C94.0749 25.6549 97.4448 25.9391 97.9542 26.5092C98.465 27.0777 98.7196 28.5184 98.7196 30.8282C98.7196 33.138 98.465 34.5786 97.9542 35.1472C97.4433 35.7158 94.1001 36.0015 87.9229 36.0015L87.9273 36Z" fill="#A0005F"/>
<path d="M119.663 36C112.381 36 108.231 35.966 107.209 35.8994C106.188 35.8327 105.259 35.732 104.423 35.5988C103.586 35.4655 102.917 35.1724 102.413 34.7193C101.476 33.865 101.007 28.2919 101.007 17.997C101.007 8.94148 101.367 3.5431 102.086 1.80187C102.588 0.596639 105.099 -0.00598145 109.618 -0.00598145H119.661C125.839 -0.00598145 129.182 0.278303 129.693 0.848346C130.203 1.41691 130.458 2.85756 130.458 5.16735C130.458 7.47713 130.203 8.91779 129.693 9.48635C129.182 10.0549 125.839 10.3407 119.661 10.3407H118.105L118.181 12.8267C124.358 12.8267 127.701 13.1109 128.212 13.681C128.723 14.2495 128.977 15.6902 128.977 18C128.977 20.3098 128.723 21.7504 128.212 22.319C127.701 22.8876 124.358 23.1733 118.181 23.1733L118.105 25.6593H119.661C125.839 25.6593 129.182 25.9436 129.693 26.5136C130.203 27.0822 130.458 28.5228 130.458 30.8326C130.458 33.1424 130.203 34.5831 129.693 35.1516C129.182 35.7202 125.839 36.006 119.661 36.006L119.663 36Z" fill="#A0005F"/>
<path d="M148.737 36C143.405 36 139.711 35.7898 137.655 35.3722C136.951 35.2212 136.385 34.9295 135.959 34.4928C135.122 33.6562 134.703 28.1571 134.703 17.997C134.703 7.83693 135.122 2.33786 135.959 1.50131C136.385 1.066 136.958 0.781715 137.678 0.646978C140.013 0.211672 144.265 -0.00598145 150.433 -0.00598145C152.9 -0.00598145 155.17 0.0902615 157.241 0.282744C159.313 0.475226 161.107 0.8898 162.628 1.52499C164.148 2.16166 165.323 3.11075 166.153 4.37521C166.982 5.63967 167.398 7.3498 167.398 9.51004C167.398 10.3969 167.262 11.3475 166.991 12.3603C166.719 13.373 166.239 14.3532 165.548 15.2978C164.858 16.244 163.895 17.0761 162.662 17.7957C163.749 18.2147 164.733 18.8129 165.614 19.5902C166.495 20.369 167.197 21.2811 167.718 22.3264C168.239 23.3732 168.5 24.5148 168.5 25.7541C168.5 27.9306 168.044 29.6925 167.133 31.0399C166.223 32.3873 164.915 33.4208 163.211 34.1404C161.507 34.8599 159.437 35.35 156.998 35.6091C154.56 35.8683 151.806 35.9986 148.737 35.9986V36ZM151.602 13.4781C152.483 13.4781 153.115 13.3612 153.497 13.1272C153.966 12.8267 154.202 12.3232 154.202 11.6214C154.202 10.4502 153.335 9.86391 151.602 9.86391H149.706L149.795 13.4796H151.602V13.4781ZM151.602 25.8562C152.306 25.8562 152.909 25.7481 153.408 25.5305C154.128 25.2121 154.487 24.7102 154.487 24.0247C154.487 22.7025 153.525 22.0406 151.602 22.0406H149.795C149.78 23.3465 149.751 24.6184 149.706 25.8577H151.602V25.8562Z" fill="#A0005F"/>
</svg>
