<svg width="21" height="26" viewBox="0 0 21 26" fill="none" xmlns="http://www.w3.org/2000/svg">
<path d="M7.50684 21.3665V6.13027L18.5209 1.99998V17.2362" stroke="black" stroke-width="3" stroke-miterlimit="10" stroke-linecap="round" stroke-linejoin="round"/>
<path d="M7.50705 21.3665C7.50705 22.8872 6.27425 24.12 4.75353 24.12C3.2328 24.12 2 22.8872 2 21.3665C2 19.8457 3.2328 18.6129 4.75353 18.6129C6.27425 18.6129 7.50705 19.8457 7.50705 21.3665Z" stroke="black" stroke-width="3" stroke-miterlimit="10" stroke-linecap="round" stroke-linejoin="round"/>
<path d="M18.52 17.236C18.52 18.7568 17.2872 19.9896 15.7665 19.9896C14.2457 19.9896 13.0129 18.7568 13.0129 17.236C13.0129 15.7153 14.2457 14.4825 15.7665 14.4825C17.2872 14.4825 18.52 15.7153 18.52 17.236Z" stroke="black" stroke-width="3" stroke-miterlimit="10" stroke-linecap="round" stroke-linejoin="round"/>
<path d="M7.50684 10.2606L18.5209 6.13027" stroke="black" stroke-width="3" stroke-miterlimit="10" stroke-linecap="round" stroke-linejoin="round"/>
</svg>
